<?xml version="1.0" encoding="utf-8"?>
<!-- Generator: Adobe Illustrator 27.5.0, SVG Export Plug-In . SVG Version: 6.00 Build 0)  -->
<svg version="1.1" id="Capa_1" xmlns="http://www.w3.org/2000/svg" xmlns:xlink="http://www.w3.org/1999/xlink" x="0px" y="0px"
	 viewBox="0 0 425.197 425.197" style="enable-background:new 0 0 425.197 425.197;" xml:space="preserve">
<g>
	<path style="fill:#31344C;" d="M312.139,63.509c-16.913-16.886-40.939-24.971-71.448-24.04c-7.794,0.239-15.888,0.298-23.715,0.356
		c-32.649,0.239-66.41,0.487-91.485,13.574c-41.372,21.595-47.119,78.426-47.843,119.296l-0.033,1.886
		c-0.741,41.46-1.86,104.115,33.918,133.608c7.083,5.839,15.727,10.279,26.378,13.545c4.063,15.653,5.997,36.961-6.285,52.785
		c-0.824,1.061-0.841,2.542-0.042,3.623c0.578,0.782,1.481,1.217,2.413,1.216c0.355,0,0.716-0.064,1.064-0.195
		c1.85-0.702,44.761-17.3,61.835-49.728c27.97,0.434,58.219-2.835,92.436-9.992c10.308-2.156,21.135-4.755,30.27-10.658
		c23.923-15.458,24.444-43.199,24.904-67.674c0.045-2.353,0.089-4.687,0.152-6.989c0.07-2.551,0.146-5.136,0.222-7.751
		C346.519,170.014,348.561,99.875,312.139,63.509z"/>
	<path style="fill:#FEC048;" d="M192.377,325.081c0.504-1.03,1.551-1.681,2.694-1.681c0.021,0,0.043,0,0.066,0
		c28.014,0.607,58.429-2.608,92.965-9.83c10.16-2.125,19.965-4.476,28.242-9.824c21.24-13.725,21.709-38.646,22.162-62.747
		c0.044-2.371,0.088-4.722,0.152-7.042c0.07-2.554,0.146-5.142,0.223-7.76c1.607-55.204,3.607-123.907-30.982-158.441
		c-15.917-15.893-37.826-23.182-67.024-22.289c-7.864,0.241-15.993,0.301-23.855,0.358c-31.938,0.234-64.962,0.477-88.754,12.894
		c-38.539,20.116-43.922,74.743-44.618,114.083l-0.034,1.887c-0.72,40.308-1.809,101.22,31.735,128.871
		c6.798,5.604,15.258,9.823,25.862,12.898c1.001,0.29,1.78,1.08,2.057,2.085c4.002,14.545,6.497,34.253-1.609,51.098
		C155.296,362.957,181.242,347.824,192.377,325.081z"/>
	<g>
		<path style="fill:#31344C;" d="M258.16,116.892c-21.487-25.713-70.362-24.707-89.384,3.096
			c-13.997,20.458-4.742,51.845,20.606,57.566c13.335,3.009,19.029-17.499,5.656-20.517c-12.051-2.72-14.942-17.057-7.831-26.418
			c3.769-4.96,9.199-7.864,15.125-9.387c1.333-0.343,2.679-0.612,4.03-0.871c0.155-0.03,0.662-0.107,0.919-0.15
			c0.307-0.034,0.613-0.073,0.919-0.097c3.001-0.242,5.996-0.338,9.005-0.168c9.064,0.514,18.598,4.126,24.933,10.846
			c0.121,0.128,0.561,0.653,0.668,0.76c0.252,0.355,0.497,0.715,0.731,1.073c0.653,1.001,1.223,2.041,1.778,3.099
			c0.058,0.111,0.303,0.674,0.473,1.057c0.133,0.402,0.388,1.136,0.422,1.265c0.391,1.484,0.828,2.948,1.077,4.465
			c-0.065-0.145,0.149,2.412,0.158,2.783c0.04,1.675-0.001,3.363-0.17,5.031c-0.212,2.089-1.26,6.461-2.028,8.216
			c-5.653,12.913-22.145,18.471-35.275,24.205c-3.32,1.449-5.267,5.78-5.269,9.186c-0.008,12.45,0.403,24.895,0.394,37.345
			c-0.009,13.691,21.268,13.713,21.277,0c0.007-10.163-0.255-20.322-0.351-30.484c14.847-6.557,30.243-14.27,37.595-29.512
			C271.768,152.389,270.306,131.426,258.16,116.892z"/>
		<path style="fill:#31344C;" d="M212.645,252.989c-13.691,0-13.714,21.277,0,21.277
			C226.336,274.267,226.358,252.989,212.645,252.989z"/>
	</g>
	<g>
		<path style="fill:#FFDD49;" d="M274.914,66.498c-15.732-3.778-43.836-7.048-45.033,7.298
			c-0.889,10.662,12.979,13.119,20.134,16.289c10.448,4.629,19.554,10.518,26.495,20.023c9.22,12.625,8.413,53.859,29.707,50.557
			c17.893-2.776,14.115-31.08,12.326-43.461C315.069,93.159,298.916,72.262,274.914,66.498z"/>
	</g>
	<g>
		<path style="fill:#FFDD49;" d="M303.321,168.045c-7.266,3.913-11.877,5.935-12.704,14.388c-0.844,8.63,5.887,20.929,15.649,20.659
			c19.983-0.553,18.24-37.201-1.886-35.047"/>
	</g>
	<g>
		<g>
			<path style="fill:#31344C;" d="M292.685,43.027c5.013,1.596,9.732,4.393,14.139,7.391c5.194,3.533,10.033,7.59,14.484,12.021
				c8.898,8.858,15.97,19.841,20.528,31.544c2.696,6.923,4.424,14.157,5.498,21.5c0.196,1.337,1.889,2.072,3.075,1.746
				c1.434-0.394,1.942-1.734,1.746-3.075c-1.966-13.435-6.471-26.071-13.565-37.658c-7.097-11.591-16.454-21.305-27.514-29.19
				c-5.23-3.729-10.909-7.141-17.063-9.1C290.94,37.227,289.625,42.053,292.685,43.027L292.685,43.027z"/>
		</g>
	</g>
	<g>
		<g>
			<path style="fill:#31344C;" d="M348.728,125.201c0.02,0.352,0.039,0.705,0.059,1.057c-0.013,0.344,0.059,0.665,0.215,0.963
				c0.101,0.31,0.273,0.578,0.517,0.804c0.226,0.244,0.495,0.416,0.805,0.517c0.298,0.157,0.619,0.228,0.963,0.215
				c0.222-0.03,0.443-0.06,0.665-0.089c0.424-0.119,0.791-0.333,1.103-0.643c0.13-0.169,0.261-0.337,0.391-0.506
				c0.226-0.39,0.34-0.811,0.341-1.262c-0.02-0.352-0.039-0.705-0.059-1.057c0.013-0.344-0.059-0.665-0.215-0.963
				c-0.101-0.31-0.273-0.578-0.517-0.805c-0.227-0.244-0.495-0.416-0.805-0.517c-0.298-0.157-0.619-0.228-0.963-0.215
				c-0.221,0.03-0.443,0.06-0.665,0.089c-0.423,0.119-0.791,0.333-1.103,0.643c-0.13,0.169-0.261,0.337-0.391,0.506
				C348.843,124.33,348.73,124.75,348.728,125.201L348.728,125.201z"/>
		</g>
	</g>
	<g>
		<g>
			<path style="fill:#31344C;" d="M306.135,329.652c6.66-1.391,13.033-3.978,19-7.219c5.659-3.074,10.985-6.851,15.221-11.74
				c7.567-8.733,11.949-19.313,13.689-30.677c1.002-6.547,1.33-13.16,1.479-19.775c0.072-3.219-4.928-3.218-5,0
				c-0.24,10.72-0.865,21.617-4.659,31.757c-1.822,4.871-4.452,9.514-7.713,13.567c-3.769,4.682-8.293,8.366-13.474,11.389
				c-6.192,3.612-12.84,6.408-19.871,7.876c-1.322,0.276-2.088,1.832-1.746,3.075C303.436,329.277,304.809,329.928,306.135,329.652
				L306.135,329.652z"/>
		</g>
	</g>
	<g>
		<g>
			<path style="fill:#31344C;" d="M353.674,254.898c3.217,0,3.223-5,0-5C350.457,249.898,350.451,254.898,353.674,254.898
				L353.674,254.898z"/>
		</g>
	</g>
	<g>
		<g>
			<path style="fill:#31344C;" d="M143.753,386.991c18.6-6.829,37.11-16.761,50.253-31.918c3.721-4.291,6.982-8.977,9.548-14.048
				c1.449-2.865-2.863-5.399-4.317-2.524c-8.75,17.294-25.201,29.19-42.255,37.497c-4.743,2.311-9.606,4.352-14.559,6.171
				c-1.267,0.465-2.125,1.696-1.746,3.075C141.013,386.466,142.479,387.459,143.753,386.991L143.753,386.991z"/>
		</g>
	</g>
	<g>
		<g>
			<path style="fill:#31344C;" d="M69.112,261.428c3.551,23.508,12.517,48.204,33.686,61.335c5.961,3.698,12.54,5.721,19.281,7.478
				c3.116,0.812,4.446-4.01,1.329-4.821c-5.686-1.481-11.276-3.065-16.416-5.981c-4.575-2.596-8.662-5.922-12.273-9.738
				c-7.827-8.271-13.014-18.626-16.345-29.441c-2.028-6.586-3.412-13.351-4.441-20.16c-0.202-1.336-1.884-2.073-3.075-1.746
				C69.429,258.746,68.91,260.088,69.112,261.428L69.112,261.428z"/>
		</g>
	</g>
	<g>
		<g>
			<path style="fill:#31344C;" d="M82.789,96.858c3.044-18.555,14.439-35.617,30.363-45.609c4.698-2.948,9.738-5.242,15.057-6.816
				c3.078-0.911,1.768-5.738-1.329-4.821c-19.736,5.842-36.01,21.121-44.127,39.921c-2.218,5.137-3.879,10.47-4.785,15.997
				c-0.218,1.331,0.347,2.691,1.746,3.075C80.909,98.933,82.57,98.198,82.789,96.858L82.789,96.858z"/>
		</g>
	</g>
	<path style="fill:#F89A45;" d="M157.616,86.667c4.203-7.86,9.705-14.89,16.258-20.921c8.177-7.525,17.448-13.606,26.682-19.737
		c-26.522,0.492-52.576,2.42-72.291,12.71c-38.539,20.116-43.922,74.743-44.618,114.083l-0.034,1.887
		c-0.72,40.308-1.809,101.22,31.735,128.871c6.798,5.604,15.258,9.823,25.862,12.898c1.001,0.29,1.78,1.08,2.057,2.085
		c4.002,14.545,6.497,34.253-1.609,51.098c13.638-6.684,39.584-21.816,50.719-44.56c0.504-1.03,1.551-1.681,2.694-1.681
		c0.021,0,0.043,0,0.066,0c28.014,0.607,58.429-2.608,92.965-9.83c10.16-2.125,19.965-4.476,28.242-9.824
		c15.357-9.923,19.854-25.7,21.339-42.787c-5.899,5.846-12.486,10.956-19.921,14.765c-7.514,3.849-15.658,6.013-23.928,7.538
		c-10.058,1.855-20.285,2.687-30.494,3.109c-10.178,0.421-20.367,0.411-30.551,0.408c-7.753-0.002-15.518-0.021-23.254-0.607
		c-13.775-1.043-28.36-3.961-38.868-13.589c-5.505-5.044-9.417-11.609-11.828-18.641c-3.207-9.35-5.195-19.152-6.701-28.904
		c-2.974-19.251-3.898-38.774-4.861-58.208c-0.899-18.137-1.756-36.53,1.608-54.483C150.556,103.43,153.329,94.684,157.616,86.667z"
		/>
</g>
</svg>
