<svg width="17" height="16" viewBox="0 0 17 16" fill="none" xmlns="http://www.w3.org/2000/svg">
<path d="M3.327 16C3.18567 16 3.067 15.952 2.971 15.856C2.875 15.76 2.827 15.641 2.827 15.499C2.827 15.357 2.875 15.2383 2.971 15.143C3.067 15.0477 3.18567 15 3.327 15H14.673C14.815 15 14.9337 15.048 15.029 15.144C15.1243 15.24 15.1723 15.359 15.173 15.501C15.1737 15.643 15.1257 15.7617 15.029 15.857C14.9323 15.9523 14.8137 16 14.673 16H3.327ZM4.104 13.116C3.71067 13.116 3.368 12.9927 3.076 12.746C2.784 12.4993 2.59667 12.186 2.514 11.806L1.32 5.475C1.28667 5.48833 1.24933 5.49567 1.208 5.497C1.166 5.499 1.12833 5.5 1.095 5.5C0.781 5.5 0.52 5.39333 0.312 5.18C0.104 4.96667 0 4.708 0 4.404C0 4.08867 0.104333 3.82067 0.313 3.6C0.521 3.38 0.782333 3.27 1.097 3.27C1.41167 3.27 1.67933 3.38 1.9 3.6C2.12 3.82067 2.23 4.08867 2.23 4.404C2.23 4.47333 2.22733 4.53767 2.222 4.597C2.21667 4.65633 2.197 4.715 2.163 4.773L4.923 5.884C5.051 5.93533 5.17933 5.942 5.308 5.904C5.436 5.86533 5.54467 5.78833 5.634 5.673L8.336 2.013C8.19133 1.91833 8.07667 1.793 7.992 1.637C7.90733 1.48167 7.865 1.314 7.865 1.134C7.865 0.819333 7.97533 0.551667 8.196 0.331C8.416 0.110333 8.68367 0 8.999 0C9.31367 0 9.58167 0.11 9.803 0.33C10.0243 0.55 10.135 0.816667 10.135 1.13C10.135 1.31933 10.0927 1.49 10.008 1.642C9.92333 1.79533 9.80867 1.919 9.664 2.013L12.366 5.673C12.4553 5.78833 12.564 5.865 12.692 5.903C12.8207 5.94233 12.949 5.93633 13.077 5.885L15.837 4.773C15.819 4.71967 15.8033 4.66133 15.79 4.598C15.7767 4.534 15.77 4.46933 15.77 4.404C15.77 4.08867 15.874 3.82067 16.082 3.6C16.29 3.38 16.5513 3.27 16.866 3.27C17.1807 3.27 17.4483 3.38 17.669 3.6C17.8897 3.82067 18 4.08867 18 4.404C18 4.70667 17.8893 4.965 17.668 5.179C17.4467 5.393 17.178 5.5 16.862 5.5C16.8367 5.5 16.808 5.496 16.776 5.488C16.744 5.48 16.7087 5.47567 16.67 5.475L15.486 11.805C15.4027 12.1863 15.2153 12.5 14.924 12.746C14.6327 12.992 14.29 13.1153 13.896 13.116H4.104Z" fill="#4A3F20"/>
</svg>
