<svg width="10" height="11" viewBox="0 0 10 11" fill="none" xmlns="http://www.w3.org/2000/svg">
<path d="M5.33533 6.70432V7.76167C4.85244 7.59978 4.33563 7.55013 3.82831 7.61687C3.32099 7.68362 2.83797 7.86482 2.4198 8.14525C2.00163 8.42569 1.66054 8.79717 1.42515 9.22851C1.18977 9.65985 1.06697 10.1384 1.06707 10.6241H3.06894e-07C-0.000246749 10.0063 0.148673 9.39662 0.435346 8.84182C0.722019 8.28702 1.13884 7.80181 1.65386 7.42339C2.16887 7.04496 2.76842 6.78336 3.40656 6.65863C4.04469 6.5339 4.70447 6.54986 5.33533 6.70432ZM4.26826 6.07092C2.4996 6.07092 1.06707 4.71255 1.06707 3.03546C1.06707 1.35837 2.4996 0 4.26826 0C6.03692 0 7.46946 1.35837 7.46946 3.03546C7.46946 4.71255 6.03692 6.07092 4.26826 6.07092ZM4.26826 5.0591C5.44737 5.0591 6.40239 4.15352 6.40239 3.03546C6.40239 1.9174 5.44737 1.01182 4.26826 1.01182C3.08915 1.01182 2.13413 1.9174 2.13413 3.03546C2.13413 4.15352 3.08915 5.0591 4.26826 5.0591ZM7.35901 9.56878L9.24505 7.78039L10 8.49574L7.35901 11L5.47244 9.2111L6.22739 8.49574L7.35901 9.56878Z" fill="url(#paint0_linear_3936_1588)"/>
<defs>
<linearGradient id="paint0_linear_3936_1588" x1="-3.59085e-09" y1="3.01613" x2="10.063" y2="3.67193" gradientUnits="userSpaceOnUse">
<stop stop-color="#FFCB0C"/>
<stop offset="0.663461" stop-color="#DC9903"/>
</linearGradient>
</defs>
</svg>
