<svg width="12" height="15" viewBox="0 0 12 15" fill="none" xmlns="http://www.w3.org/2000/svg">
<path d="M5.6499 0.199799C7.57446 0.199799 9.13117 1.78567 9.13135 3.733V4.86679H9.5874C10.4227 4.86679 11.1001 5.55918 11.1001 6.39999V13.067C11.0999 13.9076 10.4226 14.6002 9.5874 14.6002H1.7124C0.87722 14.6002 0.199882 13.9076 0.199707 13.067V6.39999C0.199707 5.55918 0.877113 4.86679 1.7124 4.86679H2.16846V3.733C2.16863 1.78567 3.72535 0.199799 5.6499 0.199799ZM1.9126 12.8668H9.38721V6.60019H1.9126V12.8668ZM5.6499 8.1998C6.48508 8.1998 7.16242 8.89234 7.1626 9.733C7.1626 10.5738 6.48519 11.2662 5.6499 11.2662C4.81461 11.2662 4.13721 10.5738 4.13721 9.733C4.13738 8.89234 4.81472 8.1998 5.6499 8.1998ZM5.6499 1.9332C4.67405 1.9332 3.88152 2.73396 3.88135 3.733V4.86679H7.41846V3.733C7.41828 2.73396 6.62576 1.9332 5.6499 1.9332Z" fill="url(#paint0_linear_612_2666)" stroke="url(#paint1_linear_612_2666)" stroke-width="0.4"/>
<defs>
<linearGradient id="paint0_linear_612_2666" x1="10.8999" y1="7.39999" x2="0.399902" y2="7.39999" gradientUnits="userSpaceOnUse">
<stop stop-color="#FF0000"/>
<stop offset="1" stop-color="#990000"/>
</linearGradient>
<linearGradient id="paint1_linear_612_2666" x1="5.6499" y1="0.399994" x2="5.6499" y2="14.4" gradientUnits="userSpaceOnUse">
<stop stop-color="#090000"/>
<stop offset="1" stop-color="#FF0000"/>
</linearGradient>
</defs>
</svg>
