<svg width="14" height="13" viewBox="0 0 14 13" fill="none" xmlns="http://www.w3.org/2000/svg">
<path d="M0.778335 11.6668L0.0549932 11.379C0.00330863 11.5091 -0.0123335 11.6506 0.00971554 11.7888C0.0317646 11.927 0.0906881 12.0567 0.180275 12.1642C0.269861 12.2717 0.386792 12.3531 0.518741 12.3997C0.650691 12.4463 0.79277 12.4564 0.930003 12.429L0.778335 11.6668ZM4.4386 10.9388L4.80727 10.2536L4.56071 10.1213L4.28693 10.1758L4.4386 10.9388ZM2.04146 8.49109L2.7648 8.77888L2.89158 8.45687L2.73913 8.14654L2.04146 8.49109ZM12.4451 6.22229C12.4451 8.74699 10.2261 10.889 7.36619 10.889V12.4446C10.9759 12.4446 14.0007 9.71144 14.0007 6.22229H12.4451ZM2.28802 6.22229C2.28802 3.6976 4.50782 1.55557 7.36696 1.55557V0C3.75726 0 0.731668 2.73314 0.731668 6.22229H2.28802ZM7.36696 1.55557C10.2261 1.55557 12.4451 3.6976 12.4451 6.22229H14.0007C14.0007 2.73314 10.9767 0 7.36696 0V1.55557ZM7.36619 10.889C6.42895 10.889 5.55628 10.6557 4.80727 10.2536L4.06993 11.6232C5.08364 12.1667 6.21601 12.449 7.36619 12.4446V10.889ZM0.930003 12.429L4.59027 11.701L4.28693 10.1758L0.626666 10.9038L0.930003 12.4298V12.429ZM2.73913 8.14654C2.44303 7.54823 2.2892 6.88986 2.28802 6.22229H0.731668C0.731668 7.15564 0.951003 8.04076 1.34301 8.83565L2.73913 8.14654ZM1.3189 8.20331L0.0549932 11.3798L1.50012 11.9538L2.76325 8.7781L1.31812 8.20331H1.3189Z" fill="white"/>
<path d="M4.66743 6.99991C5.09699 6.99991 5.44522 6.65168 5.44522 6.22212C5.44522 5.79256 5.09699 5.44434 4.66743 5.44434C4.23788 5.44434 3.88965 5.79256 3.88965 6.22212C3.88965 6.65168 4.23788 6.99991 4.66743 6.99991Z" fill="white"/>
<path d="M7.39009 6.99991C7.81965 6.99991 8.16788 6.65168 8.16788 6.22212C8.16788 5.79256 7.81965 5.44434 7.39009 5.44434C6.96053 5.44434 6.6123 5.79256 6.6123 6.22212C6.6123 6.65168 6.96053 6.99991 7.39009 6.99991Z" fill="white"/>
<path d="M10.1118 6.99991C10.5413 6.99991 10.8896 6.65168 10.8896 6.22212C10.8896 5.79256 10.5413 5.44434 10.1118 5.44434C9.68221 5.44434 9.33398 5.79256 9.33398 6.22212C9.33398 6.65168 9.68221 6.99991 10.1118 6.99991Z" fill="white"/>
</svg>
