<svg width="27" height="27" viewBox="0 0 27 27" fill="none" xmlns="http://www.w3.org/2000/svg">
<path d="M7.5 20.1969L5.2 22.4969C4.88334 22.8136 4.52067 22.8846 4.112 22.7099C3.70333 22.5352 3.49933 22.2226 3.5 21.7719V6.1969C3.5 5.6469 3.696 5.17623 4.088 4.7849C4.48 4.39357 4.95067 4.19757 5.5 4.1969H21.5C22.05 4.1969 22.521 4.3929 22.913 4.7849C23.305 5.1769 23.5007 5.64757 23.5 6.1969V18.1969C23.5 18.7469 23.3043 19.2179 22.913 19.6099C22.5217 20.0019 22.0507 20.1976 21.5 20.1969H7.5ZM8.5 16.1969H14.5C14.7833 16.1969 15.021 16.1009 15.213 15.9089C15.405 15.7169 15.5007 15.4796 15.5 15.1969C15.4993 14.9142 15.4033 14.6769 15.212 14.4849C15.0207 14.2929 14.7833 14.1969 14.5 14.1969H8.5C8.21667 14.1969 7.97933 14.2929 7.788 14.4849C7.59667 14.6769 7.50067 14.9142 7.5 15.1969C7.49933 15.4796 7.59534 15.7172 7.788 15.9099C7.98067 16.1026 8.218 16.1982 8.5 16.1969ZM8.5 13.1969H18.5C18.7833 13.1969 19.021 13.1009 19.213 12.9089C19.405 12.7169 19.5007 12.4796 19.5 12.1969C19.4993 11.9142 19.4033 11.6769 19.212 11.4849C19.0207 11.2929 18.7833 11.1969 18.5 11.1969H8.5C8.21667 11.1969 7.97933 11.2929 7.788 11.4849C7.59667 11.6769 7.50067 11.9142 7.5 12.1969C7.49933 12.4796 7.59534 12.7172 7.788 12.9099C7.98067 13.1026 8.218 13.1982 8.5 13.1969ZM8.5 10.1969H18.5C18.7833 10.1969 19.021 10.1009 19.213 9.9089C19.405 9.7169 19.5007 9.47957 19.5 9.1969C19.4993 8.91423 19.4033 8.6769 19.212 8.4849C19.0207 8.2929 18.7833 8.1969 18.5 8.1969H8.5C8.21667 8.1969 7.97933 8.2929 7.788 8.4849C7.59667 8.6769 7.50067 8.91423 7.5 9.1969C7.49933 9.47957 7.59534 9.71723 7.788 9.9099C7.98067 10.1026 8.218 10.1982 8.5 10.1969Z" fill="white"/>
</svg>
